<svg width="46" height="46" viewBox="0 0 46 46" fill="none" xmlns="http://www.w3.org/2000/svg">
<path d="M0 10C0 4.47715 4.47715 0 10 0H36C41.5228 0 46 4.47715 46 10V36C46 41.5228 41.5228 46 36 46H10C4.47715 46 0 41.5228 0 36V10Z" fill="#FF704D"/>
<path d="M32.8199 34.6052V22.8228H24.0771V28.2677C24.0771 34.0499 27.5742 34.764 32.8199 34.6052Z" fill="#2C4CDF"/>
<path d="M12.88 34.6052V22.8228H21.6229V28.2677C21.6229 34.0499 18.1257 34.764 12.88 34.6052Z" fill="#2C4CDF"/>
<ellipse cx="28.5535" cy="16.2004" rx="4.26293" ry="4.25974" fill="#2C4CDF"/>
<ellipse cx="17.3076" cy="16.2004" rx="4.26293" ry="4.25974" fill="#2C4CDF"/>
</svg>
