<svg width="260" height="135" viewBox="0 0 260 135" fill="none" xmlns="http://www.w3.org/2000/svg">
<path d="M256.56 131.682V129.97C255.923 131.101 255.011 131.667 253.823 131.667C252.969 131.667 252.33 131.407 251.905 130.887C251.485 130.366 251.276 129.649 251.276 128.735V124.182H249.85V123.334H252.906V128.72C252.906 129.392 253.012 129.876 253.224 130.174C253.441 130.467 253.775 130.614 254.225 130.614C254.558 130.614 254.902 130.518 255.256 130.326C255.61 130.129 255.905 129.879 256.143 129.576C256.385 129.268 256.507 128.95 256.507 128.621V124.182H255.127V123.334H258.144V130.606L259.615 130.765V131.462L256.56 131.682Z" fill="#2C4CDF"/>
<path d="M245.545 131.667C244.736 131.667 244.033 131.482 243.437 131.114C242.846 130.745 242.386 130.24 242.057 129.599C241.734 128.952 241.572 128.217 241.572 127.394C241.572 126.571 241.731 125.839 242.05 125.197C242.368 124.551 242.823 124.043 243.414 123.675C244.011 123.301 244.716 123.114 245.529 123.114C246.348 123.114 247.051 123.301 247.637 123.675C248.228 124.043 248.681 124.551 248.994 125.197C249.312 125.839 249.472 126.571 249.472 127.394C249.472 128.207 249.312 128.937 248.994 129.584C248.681 130.23 248.231 130.74 247.644 131.114C247.058 131.482 246.358 131.667 245.545 131.667ZM245.545 130.705C246.222 130.705 246.755 130.412 247.144 129.826C247.538 129.235 247.735 128.457 247.735 127.493C247.735 126.897 247.667 126.334 247.531 125.803C247.394 125.273 247.164 124.844 246.841 124.516C246.522 124.182 246.085 124.016 245.529 124.016C244.963 124.016 244.519 124.187 244.195 124.531C243.872 124.874 243.642 125.311 243.505 125.841C243.374 126.372 243.308 126.922 243.308 127.493C243.308 128.462 243.508 129.24 243.907 129.826C244.306 130.412 244.852 130.705 245.545 130.705Z" fill="#2C4CDF"/>
<path d="M234.567 135C233.869 135 233.301 134.841 232.861 134.523C232.426 134.21 232.209 133.806 232.209 133.311C232.209 132.957 232.325 132.667 232.558 132.44C232.79 132.212 233.109 132.099 233.513 132.099C233.826 132.099 234.061 132.205 234.218 132.417C234.38 132.629 234.461 132.889 234.461 133.197C234.461 133.384 234.397 133.548 234.271 133.689C234.15 133.836 234.001 133.952 233.824 134.038C234.031 134.149 234.198 134.205 234.324 134.205C234.769 134.205 235.143 134.005 235.446 133.606C235.754 133.212 235.989 132.556 236.151 131.637L233.142 124.182H231.633V123.334H236.31V124.182H234.931L237.129 130.129L239.009 124.182H237.751V123.334H241.648V124.182H240.344L237.736 131.493C237.427 132.356 237.117 133.043 236.803 133.553C236.49 134.068 236.151 134.437 235.787 134.659C235.428 134.886 235.022 135 234.567 135Z" fill="#2C4CDF"/>
<path d="M218.26 131.462V130.614H219.739V124.182H218.26V123.334L221.134 123.205L221.323 124.856C221.571 124.291 221.95 123.859 222.46 123.561C222.976 123.263 223.496 123.114 224.022 123.114C224.654 123.114 225.152 123.248 225.516 123.516C225.885 123.778 226.147 124.132 226.304 124.576C226.461 125.021 226.539 125.516 226.539 126.061V130.614H228.093V131.462H223.522V130.614H224.909V126.076C224.909 125.42 224.78 124.935 224.522 124.622C224.265 124.309 223.911 124.152 223.461 124.152C222.935 124.152 222.519 124.303 222.21 124.606C221.907 124.904 221.69 125.276 221.558 125.72C221.432 126.159 221.369 126.594 221.369 127.023V130.614H222.748V131.462H218.26Z" fill="#2C4CDF"/>
<path d="M213.689 131.667C213.072 131.667 212.509 131.551 211.998 131.318C211.493 131.081 211.076 130.765 210.747 130.371C210.07 129.553 209.731 128.596 209.731 127.5C209.731 127.046 209.784 126.604 209.891 126.175C209.997 125.745 210.158 125.346 210.376 124.978C210.593 124.609 210.853 124.286 211.157 124.008C211.46 123.725 211.821 123.506 212.241 123.349C212.65 123.192 213.102 123.114 213.598 123.114C214.654 123.114 215.523 123.468 216.206 124.175C216.539 124.523 216.805 124.965 217.002 125.5C217.199 126.031 217.302 126.627 217.312 127.288H211.467V127.349C211.467 128.228 211.654 128.967 212.028 129.568C212.215 129.866 212.463 130.101 212.771 130.273C213.085 130.445 213.444 130.53 213.848 130.53C214.374 130.53 214.866 130.366 215.326 130.038C215.791 129.71 216.105 129.248 216.266 128.652L217.153 128.932C216.956 129.765 216.554 130.429 215.948 130.924C215.341 131.419 214.588 131.667 213.689 131.667ZM211.52 126.47H215.645C215.624 125.738 215.422 125.147 215.038 124.697C214.659 124.243 214.194 124.016 213.643 124.016C213.087 124.016 212.61 124.243 212.21 124.697C211.811 125.147 211.581 125.738 211.52 126.47Z" fill="#2C4CDF"/>
<path d="M204.97 131.667C204.354 131.667 203.79 131.551 203.28 131.318C202.774 131.081 202.357 130.765 202.029 130.371C201.352 129.553 201.013 128.596 201.013 127.5C201.013 127.046 201.066 126.604 201.172 126.175C201.278 125.745 201.44 125.346 201.657 124.978C201.875 124.609 202.135 124.286 202.438 124.008C202.742 123.725 203.103 123.506 203.522 123.349C203.932 123.192 204.384 123.114 204.879 123.114C205.936 123.114 206.805 123.468 207.487 124.175C207.821 124.523 208.086 124.965 208.283 125.5C208.48 126.031 208.584 126.627 208.594 127.288H202.749V127.349C202.749 128.228 202.936 128.967 203.31 129.568C203.497 129.866 203.745 130.101 204.053 130.273C204.366 130.445 204.725 130.53 205.13 130.53C205.655 130.53 206.148 130.366 206.608 130.038C207.073 129.71 207.386 129.248 207.548 128.652L208.435 128.932C208.238 129.765 207.836 130.429 207.23 130.924C206.623 131.419 205.87 131.667 204.97 131.667ZM202.802 126.47H206.926C206.906 125.738 206.704 125.147 206.32 124.697C205.941 124.243 205.476 124.016 204.925 124.016C204.369 124.016 203.891 124.243 203.492 124.697C203.093 125.147 202.863 125.738 202.802 126.47Z" fill="#2C4CDF"/>
<path d="M191.961 131.758C191.718 131.758 191.524 131.674 191.377 131.508C191.23 131.346 191.104 131.068 190.998 130.674L189.277 124.182H188.003V123.334H192.256V124.182H191.036L192.302 129.803L194.076 124.205H195.456L197.101 129.849L198.518 124.182H197.245V123.334H200.74V124.182H199.663L197.942 130.637C197.826 131.071 197.7 131.366 197.563 131.523C197.432 131.679 197.227 131.758 196.949 131.758C196.691 131.758 196.487 131.677 196.335 131.515C196.189 131.354 196.062 131.078 195.956 130.69L194.622 125.796L193.052 130.621C192.916 131.046 192.769 131.341 192.613 131.508C192.461 131.674 192.244 131.758 191.961 131.758Z" fill="#2C4CDF"/>
<path d="M185.032 131.667C184.602 131.667 184.2 131.576 183.826 131.394C183.452 131.212 183.149 130.942 182.916 130.584C182.689 130.22 182.575 129.768 182.575 129.228V124.182H181.029V123.826C181.418 123.71 181.772 123.503 182.09 123.205C182.408 122.902 182.661 122.576 182.848 122.228C183.005 121.945 183.119 121.723 183.189 121.561C183.26 121.395 183.331 121.228 183.402 121.061C183.472 120.895 183.581 120.67 183.728 120.387C183.834 120.17 183.927 120.061 184.008 120.061C184.14 120.061 184.205 120.15 184.205 120.326V123.334H187.192V124.197H184.205V129.273C184.205 129.717 184.306 130.051 184.508 130.273C184.711 130.495 184.978 130.606 185.312 130.606C185.716 130.606 186.022 130.475 186.229 130.212C186.437 129.945 186.54 129.478 186.54 128.811V127.72H187.45V128.652C187.45 129.652 187.271 130.404 186.912 130.909C186.558 131.414 185.931 131.667 185.032 131.667Z" fill="#2C4CDF"/>
<path d="M176.981 131.667C176.365 131.667 175.801 131.551 175.291 131.318C174.785 131.081 174.368 130.765 174.04 130.371C173.362 129.553 173.024 128.596 173.024 127.5C173.024 127.046 173.077 126.604 173.183 126.175C173.289 125.745 173.451 125.346 173.668 124.978C173.886 124.609 174.146 124.286 174.449 124.008C174.752 123.725 175.114 123.506 175.533 123.349C175.943 123.192 176.395 123.114 176.89 123.114C177.946 123.114 178.816 123.468 179.498 124.175C179.832 124.523 180.097 124.965 180.294 125.5C180.491 126.031 180.595 126.627 180.605 127.288H174.76V127.349C174.76 128.228 174.947 128.967 175.321 129.568C175.508 129.866 175.756 130.101 176.064 130.273C176.377 130.445 176.736 130.53 177.14 130.53C177.666 130.53 178.159 130.366 178.619 130.038C179.084 129.71 179.397 129.248 179.559 128.652L180.446 128.932C180.249 129.765 179.847 130.429 179.24 130.924C178.634 131.419 177.881 131.667 176.981 131.667ZM174.813 126.47H178.937C178.917 125.738 178.715 125.147 178.331 124.697C177.952 124.243 177.487 124.016 176.936 124.016C176.38 124.016 175.902 124.243 175.503 124.697C175.104 125.147 174.874 125.738 174.813 126.47Z" fill="#2C4CDF"/>
<path d="M168.453 131.667C167.897 131.667 167.374 131.528 166.883 131.25C166.398 130.967 166.032 130.536 165.784 129.955L165.193 131.462H164.495V120.993H162.926V120.061H166.125V124.326C166.383 123.947 166.709 123.652 167.103 123.44C167.502 123.223 167.927 123.114 168.377 123.114C169.084 123.114 169.698 123.296 170.219 123.66C170.745 124.023 171.152 124.528 171.44 125.175C171.728 125.816 171.872 126.556 171.872 127.394C171.872 128.192 171.73 128.917 171.447 129.568C171.164 130.215 170.76 130.725 170.234 131.099C169.714 131.477 169.12 131.667 168.453 131.667ZM168.142 130.75C168.556 130.75 168.918 130.589 169.226 130.265C169.539 129.942 169.769 129.538 169.916 129.053C170.062 128.558 170.136 128.038 170.136 127.493C170.136 126.599 169.989 125.806 169.696 125.114C169.544 124.766 169.335 124.488 169.067 124.281C168.799 124.074 168.491 123.97 168.142 123.97C167.808 123.97 167.505 124.071 167.232 124.273C166.964 124.47 166.754 124.725 166.603 125.038C166.284 125.685 166.125 126.351 166.125 127.038C166.125 127.725 166.204 128.349 166.36 128.909C166.522 129.465 166.757 129.909 167.065 130.243C167.374 130.581 167.732 130.75 168.142 130.75Z" fill="#2C4CDF"/>
<path d="M155.633 131.667C155.016 131.667 154.453 131.551 153.942 131.318C153.437 131.081 153.02 130.765 152.691 130.371C152.014 129.553 151.676 128.596 151.676 127.5C151.676 127.046 151.729 126.604 151.835 126.175C151.941 125.745 152.103 125.346 152.32 124.978C152.537 124.609 152.798 124.286 153.101 124.008C153.404 123.725 153.765 123.506 154.185 123.349C154.594 123.192 155.047 123.114 155.542 123.114C156.598 123.114 157.468 123.468 158.15 124.175C158.483 124.523 158.749 124.965 158.946 125.5C159.143 126.031 159.247 126.627 159.257 127.288H153.412V127.349C153.412 128.228 153.599 128.967 153.973 129.568C154.16 129.866 154.407 130.101 154.716 130.273C155.029 130.445 155.388 130.53 155.792 130.53C156.318 130.53 156.811 130.366 157.27 130.038C157.735 129.71 158.049 129.248 158.211 128.652L159.098 128.932C158.9 129.765 158.499 130.429 157.892 130.924C157.286 131.419 156.533 131.667 155.633 131.667ZM153.465 126.47H157.589C157.569 125.738 157.366 125.147 156.982 124.697C156.603 124.243 156.138 124.016 155.587 124.016C155.032 124.016 154.554 124.243 154.155 124.697C153.755 125.147 153.525 125.738 153.465 126.47Z" fill="#2C4CDF"/>
<path d="M137.234 131.462V130.614H138.712V124.182H137.234V123.334L140.107 123.205L140.296 124.856C140.494 124.271 140.832 123.834 141.312 123.546C141.792 123.258 142.308 123.114 142.859 123.114C143.521 123.114 144.011 123.253 144.33 123.531C144.653 123.803 144.891 124.202 145.042 124.728C145.29 124.167 145.629 123.758 146.058 123.5C146.488 123.243 146.958 123.114 147.468 123.114C148.1 123.114 148.598 123.248 148.962 123.516C149.331 123.778 149.593 124.132 149.75 124.576C149.907 125.021 149.985 125.516 149.985 126.061V130.614H151.38V131.462H147.127V130.614H148.355V126.076C148.355 125.42 148.226 124.935 147.969 124.622C147.711 124.309 147.357 124.152 146.907 124.152C146.377 124.152 145.96 124.319 145.656 124.652C145.353 124.985 145.201 125.409 145.201 125.925V130.614H146.505V131.462H142.268V130.614H143.572V126.076C143.572 125.42 143.443 124.935 143.185 124.622C142.927 124.309 142.573 124.152 142.124 124.152C141.83 124.152 141.575 124.208 141.358 124.319C141.141 124.43 140.969 124.574 140.842 124.75C140.62 125.069 140.481 125.445 140.425 125.879C140.37 126.313 140.342 126.695 140.342 127.023V130.614H141.646V131.462H137.234Z" fill="#2C4CDF"/>
<path d="M132.374 131.667C131.565 131.667 130.863 131.482 130.266 131.114C129.675 130.745 129.215 130.24 128.886 129.599C128.563 128.952 128.401 128.217 128.401 127.394C128.401 126.571 128.56 125.839 128.879 125.197C129.197 124.551 129.652 124.043 130.243 123.675C130.84 123.301 131.545 123.114 132.359 123.114C133.177 123.114 133.88 123.301 134.466 123.675C135.057 124.043 135.51 124.551 135.823 125.197C136.142 125.839 136.301 126.571 136.301 127.394C136.301 128.207 136.142 128.937 135.823 129.584C135.51 130.23 135.06 130.74 134.474 131.114C133.887 131.482 133.187 131.667 132.374 131.667ZM132.374 130.705C133.051 130.705 133.584 130.412 133.973 129.826C134.368 129.235 134.565 128.457 134.565 127.493C134.565 126.897 134.496 126.334 134.36 125.803C134.224 125.273 133.994 124.844 133.67 124.516C133.352 124.182 132.915 124.016 132.359 124.016C131.793 124.016 131.348 124.187 131.024 124.531C130.701 124.874 130.471 125.311 130.334 125.841C130.203 126.372 130.137 126.922 130.137 127.493C130.137 128.462 130.337 129.24 130.736 129.826C131.136 130.412 131.681 130.705 132.374 130.705Z" fill="#2C4CDF"/>
<path d="M123.853 131.667C123.07 131.667 122.382 131.487 121.791 131.129C121.205 130.77 120.747 130.28 120.419 129.659C120.09 129.038 119.926 128.336 119.926 127.553C119.926 126.75 120.085 126.013 120.404 125.341C120.722 124.67 121.187 124.132 121.799 123.728C122.415 123.319 123.161 123.114 124.035 123.114C124.399 123.114 124.768 123.17 125.142 123.281C125.521 123.387 125.87 123.548 126.188 123.766C126.507 123.983 126.762 124.258 126.954 124.591C127.151 124.925 127.249 125.316 127.249 125.766C127.249 126.069 127.143 126.349 126.931 126.606C126.724 126.864 126.433 126.993 126.059 126.993C125.731 126.993 125.453 126.897 125.225 126.705C125.003 126.508 124.892 126.248 124.892 125.925C124.892 125.596 125.008 125.341 125.24 125.159C125.473 124.978 125.746 124.887 126.059 124.887C125.892 124.619 125.655 124.399 125.347 124.228C125.043 124.056 124.695 123.97 124.3 123.97C123.709 123.97 123.216 124.132 122.822 124.455C122.433 124.773 122.14 125.187 121.943 125.697C121.746 126.202 121.647 126.738 121.647 127.303C121.647 128.278 121.872 129.046 122.322 129.606C122.772 130.162 123.396 130.44 124.194 130.44C124.609 130.44 124.983 130.336 125.316 130.129C125.65 129.922 125.925 129.679 126.143 129.402C126.36 129.119 126.501 128.869 126.567 128.652L127.424 128.932C127.232 129.76 126.825 130.424 126.203 130.924C125.582 131.419 124.798 131.667 123.853 131.667Z" fill="#2C4CDF"/>
<path d="M108.812 131.667C108.19 131.667 107.682 131.503 107.288 131.174C106.899 130.841 106.704 130.384 106.704 129.803C106.704 129.5 106.772 129.225 106.909 128.978C107.045 128.725 107.227 128.515 107.455 128.349C107.925 128 108.47 127.71 109.092 127.478C109.699 127.26 110.244 127.01 110.73 126.728C110.952 126.596 111.131 126.437 111.268 126.25C111.404 126.058 111.473 125.846 111.473 125.614C111.473 125.038 111.331 124.612 111.048 124.334C110.765 124.051 110.368 123.91 109.858 123.91C109.499 123.91 109.158 123.968 108.834 124.084C108.511 124.195 108.261 124.349 108.084 124.546C108.407 124.546 108.663 124.634 108.85 124.811C109.042 124.983 109.138 125.187 109.138 125.425C109.138 125.743 109.034 126.003 108.827 126.205C108.62 126.402 108.372 126.5 108.084 126.5C107.786 126.5 107.525 126.397 107.303 126.19C107.081 125.978 106.969 125.672 106.969 125.273C106.969 124.834 107.23 124.377 107.75 123.902C108.003 123.675 108.342 123.488 108.766 123.341C109.196 123.19 109.668 123.114 110.184 123.114C110.598 123.114 110.975 123.16 111.313 123.25C111.652 123.341 111.96 123.49 112.238 123.697C112.511 123.899 112.723 124.182 112.875 124.546C113.027 124.91 113.103 125.339 113.103 125.834V129.318C113.103 129.515 113.125 129.705 113.171 129.887C113.221 130.063 113.317 130.225 113.459 130.371C113.605 130.518 113.785 130.591 113.997 130.591C114.639 130.591 114.96 130.142 114.96 129.243V128.114H115.786V129.091C115.786 130.101 115.579 130.793 115.165 131.167C114.962 131.349 114.743 131.477 114.505 131.553C114.268 131.629 113.99 131.667 113.671 131.667C113.332 131.667 113.017 131.601 112.723 131.47C112.43 131.339 112.18 131.126 111.973 130.833C111.756 130.536 111.629 130.182 111.594 129.773C111.377 130.323 111.008 130.778 110.487 131.136C109.972 131.49 109.413 131.667 108.812 131.667ZM109.206 130.576C109.539 130.576 109.883 130.477 110.237 130.28C110.596 130.078 110.891 129.826 111.124 129.523C111.356 129.225 111.473 128.935 111.473 128.652V127.038C111.149 127.356 110.775 127.642 110.351 127.894C109.931 128.147 109.587 128.334 109.32 128.455C109.047 128.576 108.812 128.743 108.615 128.955C108.417 129.167 108.319 129.424 108.319 129.727C108.319 129.98 108.392 130.185 108.539 130.341C108.69 130.498 108.913 130.576 109.206 130.576Z" fill="#2C4CDF"/>
<path d="M102.125 131.667C101.756 131.667 101.377 131.629 100.988 131.553C100.604 131.477 100.247 131.359 99.9189 131.197C99.5903 131.035 99.325 130.826 99.1228 130.568C98.9257 130.306 98.8272 129.99 98.8272 129.621C98.8272 129.293 98.9308 129.023 99.138 128.811C99.3452 128.599 99.5878 128.493 99.8658 128.493C100.149 128.493 100.389 128.571 100.586 128.728C100.788 128.884 100.889 129.111 100.889 129.409C100.889 129.667 100.813 129.882 100.662 130.053C100.51 130.22 100.338 130.303 100.146 130.303C100.338 130.445 100.599 130.563 100.927 130.659C101.261 130.75 101.594 130.796 101.928 130.796C102.282 130.796 102.623 130.758 102.951 130.682C103.28 130.601 103.55 130.465 103.762 130.273C103.975 130.076 104.081 129.806 104.081 129.462C104.081 129.22 104.005 129.005 103.853 128.818C103.707 128.627 103.512 128.475 103.27 128.364C103.027 128.253 102.749 128.142 102.436 128.031C102.127 127.919 101.812 127.824 101.488 127.743C101.064 127.632 100.652 127.485 100.252 127.303C99.8582 127.116 99.5322 126.872 99.2745 126.569C99.0218 126.266 98.8954 125.884 98.8954 125.425C98.8954 124.904 99.0521 124.475 99.3654 124.137C99.6838 123.793 100.086 123.538 100.571 123.372C101.061 123.2 101.564 123.114 102.079 123.114C102.403 123.114 102.749 123.152 103.118 123.228C103.492 123.298 103.843 123.41 104.172 123.561C104.505 123.713 104.778 123.904 104.991 124.137C105.203 124.369 105.309 124.647 105.309 124.97C105.309 125.308 105.21 125.584 105.013 125.796C104.821 126.003 104.594 126.106 104.331 126.106C104.043 126.106 103.798 126.021 103.596 125.849C103.394 125.672 103.292 125.432 103.292 125.129C103.292 124.922 103.343 124.761 103.444 124.644C103.55 124.523 103.692 124.404 103.869 124.288C103.368 124.046 102.802 123.925 102.17 123.925C101.65 123.925 101.21 124.038 100.851 124.266C100.492 124.493 100.313 124.814 100.313 125.228C100.313 125.425 100.386 125.601 100.533 125.758C100.685 125.909 100.884 126.031 101.132 126.122C101.374 126.218 101.65 126.319 101.958 126.425C102.272 126.526 102.592 126.619 102.921 126.705C103.249 126.796 103.568 126.917 103.876 127.068C104.19 127.215 104.47 127.377 104.718 127.553C104.96 127.73 105.155 127.962 105.301 128.25C105.453 128.538 105.529 128.864 105.529 129.227C105.529 129.707 105.428 130.106 105.226 130.424C105.029 130.738 104.763 130.985 104.43 131.167C104.096 131.349 103.73 131.477 103.33 131.553C102.931 131.629 102.529 131.667 102.125 131.667Z" fill="#2C4CDF"/>
<path d="M93.5357 131.462V130.576H94.9988V124.182H93.5205V123.334H96.6288V130.576H98.1147V131.462H93.5357ZM95.6887 121.894C95.3804 121.894 95.1151 121.783 94.8927 121.561C94.6754 121.339 94.5667 121.076 94.5667 120.773C94.5667 120.46 94.6754 120.195 94.8927 119.978C95.1151 119.756 95.3804 119.644 95.6887 119.644C95.992 119.644 96.2548 119.756 96.4772 119.978C96.7046 120.2 96.8183 120.465 96.8183 120.773C96.8183 121.076 96.7046 121.339 96.4772 121.561C96.2548 121.783 95.992 121.894 95.6887 121.894Z" fill="#2C4CDF"/>
<path d="M88.4714 131.758C88.1883 131.758 87.9533 131.667 87.7663 131.485C87.5844 131.308 87.4201 131.025 87.2736 130.637L84.9007 124.182H83.5058V123.334H88.0847V124.182H86.705L88.7064 130.265L90.6472 124.182H89.3584V123.334H93.2399V124.182H91.9359L89.6995 130.591C89.558 131.005 89.3912 131.303 89.1992 131.485C89.0071 131.667 88.7645 131.758 88.4714 131.758Z" fill="#2C4CDF"/>
<path d="M73.0594 131.667C72.4378 131.667 71.9298 131.503 71.5356 131.174C71.1464 130.841 70.9519 130.384 70.9519 129.803C70.9519 129.5 71.0201 129.225 71.1566 128.978C71.293 128.725 71.475 128.515 71.7024 128.349C72.1724 128 72.7183 127.71 73.3399 127.478C73.9464 127.26 74.4922 127.01 74.9774 126.728C75.1998 126.596 75.3792 126.437 75.5157 126.25C75.6522 126.058 75.7204 125.846 75.7204 125.614C75.7204 125.038 75.5789 124.612 75.2958 124.334C75.0128 124.051 74.6161 123.91 74.1056 123.91C73.7468 123.91 73.4056 123.968 73.0822 124.084C72.7587 124.195 72.5085 124.349 72.3316 124.546C72.6551 124.546 72.9103 124.634 73.0973 124.811C73.2894 124.983 73.3854 125.187 73.3854 125.425C73.3854 125.743 73.2818 126.003 73.0746 126.205C72.8674 126.402 72.6197 126.5 72.3316 126.5C72.0334 126.5 71.7732 126.397 71.5508 126.19C71.3284 125.978 71.2172 125.672 71.2172 125.273C71.2172 124.834 71.4775 124.377 71.9981 123.902C72.2508 123.675 72.5894 123.488 73.0139 123.341C73.4435 123.19 73.9161 123.114 74.4316 123.114C74.846 123.114 75.2226 123.16 75.5612 123.25C75.8998 123.341 76.2081 123.49 76.4861 123.697C76.759 123.899 76.9713 124.182 77.1229 124.546C77.2745 124.91 77.3503 125.339 77.3503 125.834V129.318C77.3503 129.515 77.3731 129.705 77.4185 129.887C77.4691 130.063 77.5651 130.225 77.7066 130.371C77.8532 130.518 78.0326 130.591 78.2449 130.591C78.8868 130.591 79.2077 130.142 79.2077 129.243V128.114H80.034V129.091C80.034 130.101 79.8268 130.793 79.4124 131.167C79.2102 131.349 78.9904 131.477 78.7528 131.553C78.5153 131.629 78.2373 131.667 77.9189 131.667C77.5803 131.667 77.2644 131.601 76.9713 131.47C76.6781 131.339 76.4279 131.126 76.2207 130.833C76.0034 130.536 75.8771 130.182 75.8417 129.773C75.6244 130.323 75.2554 130.778 74.7348 131.136C74.2193 131.49 73.6608 131.667 73.0594 131.667ZM73.4536 130.576C73.7872 130.576 74.1309 130.477 74.4847 130.28C74.8435 130.078 75.1392 129.826 75.3716 129.523C75.6041 129.225 75.7204 128.935 75.7204 128.652V127.038C75.3969 127.356 75.0229 127.642 74.5984 127.894C74.1789 128.147 73.8352 128.334 73.5673 128.455C73.2944 128.576 73.0594 128.743 72.8623 128.955C72.6652 129.167 72.5666 129.424 72.5666 129.727C72.5666 129.98 72.6399 130.185 72.7865 130.341C72.9381 130.498 73.1605 130.576 73.4536 130.576Z" fill="#2C4CDF"/>
<path d="M63.81 131.667C63.3804 131.667 62.9786 131.576 62.6046 131.394C62.2306 131.212 61.9274 130.942 61.6949 130.584C61.4675 130.22 61.3537 129.768 61.3537 129.228V124.182H59.8072V123.826C60.1964 123.71 60.5501 123.503 60.8685 123.205C61.187 122.902 61.4397 122.576 61.6267 122.228C61.7833 121.945 61.8971 121.723 61.9678 121.561C62.0386 121.395 62.1093 121.228 62.1801 121.061C62.2508 120.895 62.3595 120.67 62.5061 120.387C62.6122 120.17 62.7057 120.061 62.7866 120.061C62.918 120.061 62.9837 120.15 62.9837 120.326V123.334H65.9706V124.197H62.9837V129.273C62.9837 129.717 63.0848 130.051 63.2869 130.273C63.4891 130.495 63.7569 130.606 64.0905 130.606C64.4948 130.606 64.8006 130.475 65.0078 130.212C65.215 129.945 65.3187 129.478 65.3187 128.811V127.72H66.2284V128.652C66.2284 129.652 66.049 130.404 65.6901 130.909C65.3363 131.414 64.7096 131.667 63.81 131.667Z" fill="#2C4CDF"/>
<path d="M55.7593 131.667C55.1427 131.667 54.5791 131.551 54.0687 131.318C53.5633 131.081 53.1463 130.765 52.8178 130.371C52.1405 129.553 51.8019 128.596 51.8019 127.5C51.8019 127.046 51.855 126.604 51.9611 126.175C52.0673 125.745 52.229 125.346 52.4463 124.978C52.6636 124.609 52.9239 124.286 53.2272 124.008C53.5304 123.725 53.8918 123.506 54.3113 123.349C54.7206 123.192 55.173 123.114 55.6683 123.114C56.7246 123.114 57.5939 123.468 58.2762 124.175C58.6098 124.523 58.8751 124.965 59.0722 125.5C59.2693 126.031 59.3729 126.627 59.383 127.288H53.538V127.349C53.538 128.228 53.725 128.967 54.099 129.568C54.286 129.866 54.5336 130.101 54.8419 130.273C55.1553 130.445 55.5141 130.53 55.9185 130.53C56.4441 130.53 56.9369 130.366 57.3968 130.038C57.8618 129.71 58.1751 129.248 58.3368 128.652L59.2238 128.932C59.0267 129.765 58.6249 130.429 58.0184 130.924C57.4119 131.419 56.6589 131.667 55.7593 131.667ZM53.5911 126.47H57.7152C57.695 125.738 57.4928 125.147 57.1087 124.697C56.7296 124.243 56.2647 124.016 55.7138 124.016C55.1578 124.016 54.6802 124.243 54.2809 124.697C53.8817 125.147 53.6517 125.738 53.5911 126.47Z" fill="#2C4CDF"/>
<path d="M46.1538 131.462V130.614H47.8444V120.993H46.1538V120.061H49.4743V130.614H51.1042V131.462H46.1538Z" fill="#2C4CDF"/>
<path d="M39.3234 131.667C38.8938 131.667 38.492 131.576 38.118 131.394C37.744 131.212 37.4407 130.942 37.2082 130.584C36.9808 130.22 36.8671 129.768 36.8671 129.228V124.182H35.3205V123.826C35.7097 123.71 36.0635 123.503 36.3819 123.205C36.7003 122.902 36.953 122.576 37.14 122.228C37.2967 121.945 37.4104 121.723 37.4812 121.561C37.5519 121.395 37.6227 121.228 37.6934 121.061C37.7642 120.895 37.8728 120.67 38.0194 120.387C38.1256 120.17 38.2191 120.061 38.2999 120.061C38.4313 120.061 38.497 120.15 38.497 120.326V123.334H41.484V124.197H38.497V129.273C38.497 129.717 38.5981 130.051 38.8003 130.273C39.0024 130.495 39.2703 130.606 39.6039 130.606C40.0082 130.606 40.314 130.475 40.5212 130.212C40.7284 129.945 40.832 129.478 40.832 128.811V127.72H41.7417V128.652C41.7417 129.652 41.5623 130.404 41.2035 130.909C40.8497 131.414 40.223 131.667 39.3234 131.667Z" fill="#2C4CDF"/>
<path d="M33.0538 123.554L32.7126 122.993C32.935 122.857 33.1397 122.68 33.3267 122.463C33.5137 122.246 33.6072 122.044 33.6072 121.857C33.6072 121.771 33.587 121.7 33.5465 121.645C33.3747 121.766 33.1776 121.826 32.9552 121.826C32.7177 121.826 32.5029 121.728 32.3108 121.531C32.1188 121.329 32.0227 121.107 32.0227 120.864C32.0227 120.592 32.1339 120.352 32.3563 120.145C32.5787 119.933 32.8213 119.827 33.0841 119.827C33.4126 119.827 33.7133 119.958 33.9862 120.22C34.2642 120.483 34.4032 120.854 34.4032 121.334C34.4032 121.546 34.3779 121.741 34.3274 121.917C34.2768 122.089 34.1783 122.273 34.0317 122.47C33.9357 122.602 33.8472 122.715 33.7664 122.811C33.6855 122.902 33.592 123.003 33.4859 123.114C33.3797 123.225 33.2357 123.372 33.0538 123.554Z" fill="#2C4CDF"/>
<path d="M21.0301 131.462V130.614H22.5084V124.182H21.0301V123.334L23.9033 123.205L24.0928 124.856C24.3405 124.291 24.7195 123.859 25.23 123.561C25.7455 123.263 26.2661 123.114 26.7917 123.114C27.4235 123.114 27.9213 123.248 28.2852 123.516C28.6541 123.778 28.9169 124.132 29.0736 124.576C29.2303 125.021 29.3086 125.516 29.3086 126.061V130.614H30.8627V131.462H26.2913V130.614H27.6787V126.076C27.6787 125.42 27.5498 124.935 27.292 124.622C27.0343 124.309 26.6805 124.152 26.2307 124.152C25.7051 124.152 25.2881 124.303 24.9798 124.606C24.6766 124.904 24.4592 125.276 24.3278 125.72C24.2015 126.159 24.1383 126.594 24.1383 127.023V130.614H25.5181V131.462H21.0301Z" fill="#2C4CDF"/>
<path d="M16.1704 131.667C15.3617 131.667 14.6592 131.482 14.0629 131.114C13.4715 130.745 13.0116 130.24 12.6831 129.599C12.3596 128.952 12.1979 128.217 12.1979 127.394C12.1979 126.571 12.3571 125.839 12.6755 125.197C12.9939 124.551 13.4488 124.043 14.0401 123.675C14.6365 123.301 15.3415 123.114 16.1552 123.114C16.974 123.114 17.6765 123.301 18.2628 123.675C18.8541 124.043 19.3064 124.551 19.6198 125.197C19.9382 125.839 20.0974 126.571 20.0974 127.394C20.0974 128.207 19.9382 128.937 19.6198 129.584C19.3064 130.23 18.8566 130.74 18.2704 131.114C17.6841 131.482 16.9841 131.667 16.1704 131.667ZM16.1704 130.705C16.8476 130.705 17.3808 130.412 17.77 129.826C18.1642 129.235 18.3613 128.457 18.3613 127.493C18.3613 126.897 18.2931 126.334 18.1566 125.803C18.0202 125.273 17.7902 124.844 17.4668 124.516C17.1484 124.182 16.7112 124.016 16.1552 124.016C15.5892 124.016 15.1444 124.187 14.821 124.531C14.4975 124.874 14.2675 125.311 14.1311 125.841C13.9997 126.372 13.934 126.922 13.934 127.493C13.934 128.462 14.1336 129.24 14.5329 129.826C14.9322 130.412 15.478 130.705 16.1704 130.705Z" fill="#2C4CDF"/>
<path d="M0 131.462V130.379H1.84221V121.145H0V120.061H3.42666C4.24542 120.061 5.00353 120.112 5.70099 120.213C6.4035 120.314 7.08833 120.498 7.75547 120.766C8.4226 121.028 8.98866 121.369 9.45364 121.788C9.92366 122.203 10.3002 122.74 10.5832 123.402C10.8662 124.074 11.0078 124.836 11.0078 125.69C11.0078 126.498 10.8915 127.225 10.659 127.871C10.4265 128.513 10.1006 129.056 9.68107 129.5C9.25653 129.945 8.73848 130.316 8.12694 130.614C7.52045 130.907 6.85079 131.121 6.11795 131.258C5.38511 131.394 4.58151 131.462 3.70716 131.462H0ZM3.63135 130.379C4.26816 130.379 4.84432 130.333 5.35984 130.243C5.88041 130.152 6.37571 129.998 6.84574 129.78C7.31576 129.558 7.70998 129.273 8.02839 128.924C8.34679 128.576 8.5995 128.129 8.7865 127.584C8.9735 127.043 9.067 126.412 9.067 125.69C9.067 125.154 9.01393 124.667 8.9078 124.228C8.80671 123.788 8.66773 123.415 8.49084 123.107C8.30889 122.793 8.08146 122.521 7.80854 122.288C7.54067 122.056 7.25764 121.869 6.95945 121.728C6.65621 121.586 6.31506 121.473 5.936 121.387C5.55695 121.301 5.18547 121.24 4.82158 121.205C4.45769 121.175 4.06094 121.16 3.63135 121.16V130.379Z" fill="#2C4CDF"/>
<path d="M239.454 104.201C236.543 104.201 233.895 103.749 231.509 102.843C229.171 101.889 227.167 100.53 225.497 98.7658C223.874 97.0016 222.61 94.9275 221.703 92.5434C220.844 90.1117 220.415 87.4415 220.415 84.533C220.415 80.8139 221.155 77.5715 222.634 74.806C224.161 72.0405 226.26 69.8949 228.932 68.3691C231.605 66.7956 234.658 66.0089 238.094 66.0089C239.812 66.0089 241.434 66.2711 242.961 66.7956C244.488 67.3201 245.872 68.0591 247.113 69.0128C248.353 69.9664 249.355 71.0869 250.119 72.3743H250.19V51.1323H258.422V84.676C258.422 88.6813 257.61 92.162 255.988 95.1182C254.413 98.0268 252.194 100.268 249.331 101.841C246.516 103.415 243.224 104.201 239.454 104.201ZM239.454 97.1924C241.554 97.1924 243.391 96.6917 244.965 95.6904C246.588 94.6414 247.852 93.211 248.759 91.3991C249.665 89.5872 250.119 87.4892 250.119 85.1052C250.119 82.7211 249.665 80.6231 248.759 78.8113C247.852 76.9994 246.588 75.5928 244.965 74.5915C243.391 73.5425 241.53 73.018 239.382 73.018C237.331 73.018 235.494 73.5425 233.871 74.5915C232.249 75.6405 230.984 77.0709 230.078 78.8828C229.171 80.6947 228.718 82.7688 228.718 85.1052C228.718 87.4892 229.171 89.5872 230.078 91.3991C230.984 93.211 232.249 94.6414 233.871 95.6904C235.541 96.6917 237.402 97.1924 239.454 97.1924Z" fill="#2C4CDF"/>
<path d="M200.417 103.343C196.313 103.343 192.711 102.58 189.609 101.054C186.555 99.481 184.169 97.3353 182.452 94.6175C180.734 91.852 179.875 88.6812 179.875 85.1051C179.875 81.3383 180.638 78.0245 182.165 75.1636C183.692 72.3027 185.792 70.0617 188.464 68.4405C191.136 66.8194 194.214 66.0088 197.697 66.0088C201.61 66.0088 204.831 66.8432 207.36 68.5121C209.889 70.1809 211.75 72.4219 212.943 75.2351C214.183 78.0483 214.804 81.1953 214.804 84.676C214.804 85.1528 214.78 85.7011 214.732 86.321C214.684 86.9408 214.613 87.4177 214.517 87.7514H188.607C188.893 89.6587 189.585 91.256 190.683 92.5434C191.78 93.7831 193.164 94.7367 194.834 95.4043C196.504 96.0241 198.365 96.334 200.417 96.334H210.223V103.343H200.417ZM188.536 82.1727H206.573C206.525 81.2668 206.382 80.3608 206.143 79.4549C205.952 78.549 205.618 77.6907 205.141 76.8801C204.712 76.0695 204.139 75.3782 203.423 74.806C202.755 74.1861 201.944 73.7093 200.99 73.3755C200.035 72.9941 198.938 72.8034 197.697 72.8034C196.266 72.8034 195.001 73.0895 193.904 73.6616C192.806 74.1861 191.876 74.9013 191.112 75.8073C190.349 76.6656 189.752 77.6669 189.323 78.8112C188.941 79.9079 188.679 81.0284 188.536 82.1727Z" fill="#2C4CDF"/>
<path d="M153.41 104.201C150.5 104.201 147.851 103.749 145.466 102.843C143.127 101.889 141.123 100.53 139.453 98.7658C137.831 97.0016 136.566 94.9275 135.66 92.5434C134.801 90.1117 134.371 87.4415 134.371 84.533C134.371 80.8139 135.111 77.5715 136.59 74.806C138.117 72.0405 140.217 69.8949 142.889 68.3691C145.561 66.7956 148.615 66.0089 152.051 66.0089C153.768 66.0089 155.391 66.2711 156.918 66.7956C158.445 67.3201 159.828 68.0591 161.069 69.0128C162.31 69.9664 163.312 71.0869 164.075 72.3743H164.147V51.1323H172.378V84.676C172.378 88.6813 171.567 92.162 169.944 95.1182C168.37 98.0268 166.151 100.268 163.288 101.841C160.473 103.415 157.18 104.201 153.41 104.201ZM153.41 97.1924C155.51 97.1924 157.347 96.6917 158.922 95.6904C160.544 94.6414 161.809 93.211 162.715 91.3991C163.622 89.5872 164.075 87.4892 164.075 85.1052C164.075 82.7211 163.622 80.6231 162.715 78.8113C161.809 76.9994 160.544 75.5928 158.922 74.5915C157.347 73.5425 155.486 73.018 153.339 73.018C151.287 73.018 149.45 73.5425 147.828 74.5915C146.205 75.6405 144.941 77.0709 144.034 78.8828C143.127 80.6947 142.674 82.7688 142.674 85.1052C142.674 87.4892 143.127 89.5872 144.034 91.3991C144.941 93.211 146.205 94.6414 147.828 95.6904C149.498 96.6917 151.359 97.1924 153.41 97.1924Z" fill="#2C4CDF"/>
<path d="M91.712 103.343V82.3158C91.712 79.1688 92.4278 76.3795 93.8593 73.9477C95.2908 71.4683 97.3188 69.5372 99.9432 68.1545C102.568 66.724 105.645 66.0088 109.176 66.0088C112.707 66.0088 115.761 66.724 118.338 68.1545C120.963 69.5372 122.99 71.4683 124.422 73.9477C125.854 76.3795 126.569 79.1688 126.569 82.3158V103.343H118.41V82.3873C118.41 80.5277 117.98 78.9066 117.121 77.5238C116.262 76.0934 115.117 74.9967 113.686 74.2338C112.302 73.4232 110.775 73.0179 109.105 73.0179C107.482 73.0179 105.956 73.4232 104.524 74.2338C103.14 74.9967 102.019 76.0934 101.16 77.5238C100.349 78.9066 99.9432 80.5277 99.9432 82.3873V103.343H91.712Z" fill="#2C4CDF"/>
<path d="M64.5104 104.201C60.7407 104.201 57.4005 103.367 54.4898 101.698C51.5791 99.9817 49.2648 97.693 47.547 94.8321C45.8769 91.9235 45.0418 88.6812 45.0418 85.1051C45.0418 81.529 45.8769 78.3106 47.547 75.4497C49.2648 72.5411 51.5791 70.2524 54.4898 68.5836C57.4005 66.8671 60.7407 66.0088 64.5104 66.0088C68.2323 66.0088 71.5486 66.8671 74.4593 68.5836C77.3701 70.2524 79.6605 72.5173 81.3306 75.3782C83.0484 78.239 83.9073 81.4813 83.9073 85.1051C83.9073 88.6812 83.0484 91.9235 81.3306 94.8321C79.6605 97.693 77.3701 99.9817 74.4593 101.698C71.5486 103.367 68.2323 104.201 64.5104 104.201ZM64.5104 97.1923C66.753 97.1923 68.7094 96.6678 70.3795 95.6188C72.0496 94.5222 73.338 93.0679 74.2446 91.256C75.1512 89.4441 75.6045 87.3938 75.6045 85.1051C75.6045 82.8641 75.1512 80.8377 74.2446 79.0258C73.338 77.1662 72.0496 75.7119 70.3795 74.6629C68.7094 73.5663 66.753 73.0179 64.5104 73.0179C62.2199 73.0179 60.2397 73.5663 58.5696 74.6629C56.9472 75.7119 55.6589 77.1424 54.7045 78.9543C53.7979 80.7661 53.3446 82.8164 53.3446 85.1051C53.3446 87.3461 53.7979 89.3964 54.7045 91.256C55.6589 93.0679 56.9472 94.5222 58.5696 95.6188C60.2397 96.6678 62.2199 97.1923 64.5104 97.1923Z" fill="#2C4CDF"/>
<path d="M20.295 104.201C16.5731 104.201 13.2806 103.415 10.4176 101.841C7.55459 100.268 5.3119 98.0268 3.68952 95.1182C2.11486 92.162 1.32753 88.6813 1.32753 84.676V51.1323H9.55871V72.3743H9.63028C10.3938 71.0869 11.3958 69.9664 12.6365 69.0128C13.8771 68.0591 15.2609 67.3201 16.7878 66.7956C18.3148 66.2711 19.9371 66.0089 21.655 66.0089C25.1383 66.0089 28.1922 66.7956 30.8166 68.3691C33.4888 69.8949 35.5644 72.0405 37.0437 74.806C38.5706 77.5715 39.3341 80.8139 39.3341 84.533C39.3341 87.4415 38.8808 90.1117 37.9742 92.5434C37.1152 94.9275 35.8507 97.0016 34.1807 98.7658C32.5583 100.53 30.578 101.889 28.2399 102.843C25.9018 103.749 23.2535 104.201 20.295 104.201ZM20.295 97.1924C22.3946 97.1924 24.2555 96.6917 25.8779 95.6904C27.5003 94.6414 28.7648 93.211 29.6714 91.3991C30.578 89.5872 31.0313 87.4892 31.0313 85.1052C31.0313 82.7688 30.578 80.6947 29.6714 78.8828C28.7648 77.0709 27.5003 75.6405 25.8779 74.5915C24.3032 73.5425 22.4661 73.018 20.3666 73.018C18.2671 73.018 16.4061 73.5425 14.7837 74.5915C13.1613 75.5928 11.8968 76.9994 10.9902 78.8113C10.0836 80.6231 9.63028 82.7211 9.63028 85.1052C9.63028 87.4892 10.0836 89.5872 10.9902 91.3991C11.8968 93.211 13.1613 94.6414 14.7837 95.6904C16.4061 96.6917 18.2432 97.1924 20.295 97.1924Z" fill="#2C4CDF"/>
<path d="M150.745 44.8146V21.5171H133.458V32.2834C133.458 43.7166 140.373 45.1286 150.745 44.8146Z" fill="#2C4CDF"/>
<path d="M111.318 44.8146V21.5171H128.605V32.2834C128.605 43.7166 121.69 45.1286 111.318 44.8146Z" fill="#2C4CDF"/>
<ellipse cx="142.309" cy="8.42281" rx="8.42912" ry="8.42281" fill="#2C4CDF"/>
<ellipse cx="120.073" cy="8.42281" rx="8.42912" ry="8.42281" fill="#2C4CDF"/>
</svg>
